<svg width="277" height="160" viewBox="0 0 277 160" fill="none" xmlns="http://www.w3.org/2000/svg">
<path d="M42.2848 0C42.3677 3.98023 43.4398 7.94446 45.5012 11.5107L81.6283 74.0107C85.9171 81.4303 93.8368 86 102.407 86H174.71C183.28 86 191.2 81.4303 195.489 74.0107L231.616 11.5107C233.677 7.94446 234.75 3.98023 234.832 0H219.832C219.749 3.98022 218.677 7.94445 216.616 11.5107L187.989 61.0357C183.7 68.4553 175.78 73.025 167.21 73.025H109.907C101.337 73.025 93.4171 68.4553 89.1283 61.0357L60.5012 11.5107C58.4398 7.94445 57.3677 3.98022 57.2848 0H42.2848Z" fill="white"/>
<path d="M174.71 73C183.28 73 191.2 77.5697 195.489 84.9893L231.616 147.489C233.85 151.354 234.922 155.686 234.832 160H219.832C219.922 155.686 218.85 151.354 216.616 147.489L187.989 97.9643C183.7 90.5447 175.78 85.975 167.21 85.975L109.907 85.975C101.337 85.975 93.4171 90.5447 89.1283 97.9643L60.5012 147.489C58.2672 151.354 57.195 155.686 57.2848 160H42.2848C42.1951 155.686 43.2672 151.354 45.5012 147.489L81.6283 84.9893C85.9171 77.5697 93.8368 73 102.407 73H174.71Z" fill="white"/>
<path d="M52.0269 160C53.9472 158.307 55.6106 156.294 56.9303 154.011L93.0574 91.5107C97.3528 84.0796 97.3528 74.9204 93.0574 67.4893L56.9303 4.98934C55.8615 3.14037 54.5672 1.46839 53.0936 0H0V5.975L28.6518 5.975C37.2218 5.975 45.1414 10.5447 49.4302 17.9643L78.0574 67.4893C82.3528 74.9204 82.3528 84.0796 78.0574 91.5107L49.4302 141.036C45.1415 148.455 37.2218 153.025 28.6518 153.025H0V160H52.0269Z" fill="white"/>
<path d="M224.11 0C222.601 1.48899 221.277 3.19015 220.187 5.07529L184.06 67.5753C179.764 75.0063 179.764 84.1656 184.06 91.5966L220.187 154.097C221.484 156.341 223.114 158.325 224.993 160H276.973V153.111H248.465C239.895 153.111 231.976 148.541 227.687 141.122L199.06 91.5966C194.764 84.1656 194.764 75.0063 199.06 67.5753L227.687 18.0503C231.976 10.6307 239.895 6.06094 248.465 6.06094L276.973 6.06094V0H224.11Z" fill="white"/>
</svg>
